# xmcd
#
# Track frame offsets:
#	150
#	13845
#	29002
#	39669
#	55929
#	73630
#	87425
#	101061
#	117107
#	129598
#
# Disc length: 1899 seconds
# Revision: 0
# Processed by: cddbd v1.5.2PL0 Copyright (c) Steve Scherf et al.
# Submitted via: dBpowerAMP V12.0
#
DISCID=8b07690a
DTITLE=Kelly Richey - Sweet Spirit
DYEAR=2013
DGENRE=Blues Rock
TTITLE0=Feelin' Under
TTITLE1=I Went Down Easy
TTITLE2=Leavin' It All Behind
TTITLE3=Something's Going On
TTITLE4=Everybody Needs a Change
TTITLE5=Fast Drivin' Mama
TTITLE6=One Way Ticket
TTITLE7=Risin' Sun
TTITLE8=Dyin'
TTITLE9=Hard Workin' Woman
EXTD=
EXTT0=
EXTT1=
EXTT2=
EXTT3=
EXTT4=
EXTT5=
EXTT6=
EXTT7=
EXTT8=
EXTT9=
PLAYORDER=
